<?xml version="1.0" standalone="no"?>
<!DOCTYPE svg PUBLIC "-//W3C//DTD SVG 20010904//EN"
 "http://www.w3.org/TR/2001/REC-SVG-20010904/DTD/svg10.dtd">
<svg version="1.0" xmlns="http://www.w3.org/2000/svg"
 width="2000.000000pt" height="2000.000000pt" viewBox="0 0 2000.000000 2000.000000"
 preserveAspectRatio="xMidYMid meet">

<g transform="translate(0.000000,2000.000000) scale(0.100000,-0.100000)"
fill="#000000" stroke="none">
<path d="M0 10000 l0 -10000 10000 0 10000 0 0 10000 0 10000 -10000 0 -10000
0 0 -10000z m14090 6740 l0 -670 95 0 c92 0 95 -1 96 -22 0 -13 2 -39 2 -58
l2 -35 113 -3 112 -3 1 -97 c1 -53 1 -100 0 -104 0 -5 42 -8 94 -8 l95 0 0
-1321 0 -1322 61 -191 c33 -105 71 -225 85 -268 l25 -76 77 44 c42 24 80 44
84 44 3 0 9 -8 11 -17 4 -14 5 -12 6 5 1 14 10 26 25 32 19 7 30 28 54 100 28
83 33 128 12 115 -5 -3 -46 -10 -92 -16 -46 -5 -107 -21 -137 -34 -46 -22 -52
-23 -47 -7 3 9 -8 2 -25 -17 l-32 -35 7 40 c14 75 57 147 132 222 58 58 78 72
94 67 11 -4 20 -2 20 4 0 10 84 37 174 57 37 9 40 12 88 119 28 61 51 124 52
141 2 30 66 140 144 248 20 27 36 57 37 66 1 10 7 25 14 34 9 11 10 16 2 16
-6 0 -11 10 -12 23 -1 22 -1 21 -8 -2 -3 -13 -19 -34 -35 -45 -27 -21 -28 -21
-42 -2 -14 19 -14 19 -14 -1 0 -14 -21 -38 -62 -70 -35 -28 -78 -64 -97 -82
-26 -24 -36 -29 -47 -20 -11 9 -14 8 -14 -6 0 -10 -17 -36 -38 -59 -21 -22
-45 -52 -54 -65 -16 -23 -18 -24 -36 -8 -24 22 -32 21 -32 -3 0 -10 -10 -25
-22 -31 -55 -28 -132 -95 -159 -137 -33 -52 -35 -45 -15 48 32 149 132 370
168 370 10 0 18 7 18 16 0 45 148 199 182 188 13 -4 18 0 18 13 0 11 31 40 81
77 68 49 85 57 100 48 13 -9 18 -8 23 3 3 8 17 15 31 15 14 0 25 4 25 9 0 12
-40 63 -63 79 -12 9 -16 20 -11 34 5 17 3 20 -11 14 -24 -9 -127 96 -118 120
4 11 3 15 -5 10 -16 -10 -122 53 -132 78 -5 12 -9 18 -9 13 -1 -4 -18 3 -38
16 -52 32 -118 57 -151 57 -15 0 -33 4 -41 9 -19 12 64 65 134 87 73 23 243
29 275 11 14 -8 60 -32 103 -53 48 -23 92 -53 115 -78 20 -23 40 -40 43 -39 4
1 19 -13 34 -32 21 -28 28 -33 39 -22 8 6 10 17 6 22 -5 6 -10 55 -12 110 -2
58 -8 104 -14 110 -7 6 -17 28 -24 50 -13 44 -61 157 -70 165 -11 11 -85 166
-84 177 1 7 -3 11 -8 10 -5 -1 -18 23 -27 55 -20 61 -55 124 -74 132 -7 2 -5
5 5 5 17 1 208 -63 243 -82 23 -12 38 -24 124 -103 66 -62 91 -98 91 -135 0
-18 3 -19 14 -9 12 9 20 2 42 -42 33 -65 56 -146 43 -154 -15 -9 -10 -22 9
-20 15 1 17 -10 17 -96 l0 -97 68 66 c60 58 71 65 97 60 21 -5 28 -3 24 7 -6
15 70 71 85 61 7 -3 11 2 11 14 0 16 13 24 66 41 82 25 132 26 151 3 14 -17
14 -17 9 0 -4 14 1 17 28 17 78 0 215 -57 298 -123 41 -33 115 -133 105 -143
-3 -3 -22 -1 -42 6 -20 7 -71 12 -114 12 -42 -1 -83 3 -91 8 -9 5 -18 4 -24
-5 -6 -8 -41 -22 -78 -31 -63 -17 -68 -17 -86 -1 -22 20 -39 23 -23 3 9 -11
-5 -23 -70 -60 l-81 -47 -36 27 c-19 15 -33 21 -30 13 3 -8 9 -22 13 -31 7
-18 -10 -23 -63 -21 -7 1 -11 -5 -8 -13 3 -8 -4 -19 -17 -26 -12 -6 -48 -36
-79 -66 -31 -29 -62 -51 -67 -47 -6 3 -11 2 -11 -3 0 -5 -24 -25 -54 -46 -29
-20 -62 -46 -71 -57 -18 -19 -18 -19 26 -3 79 30 349 22 349 -10 0 -7 12 -13
28 -13 30 0 108 -47 180 -108 35 -31 41 -40 31 -52 -11 -12 -9 -13 12 -8 21 5
38 -6 107 -71 70 -64 82 -81 78 -100 -5 -17 -3 -22 8 -18 42 16 161 -222 134
-270 -6 -11 -6 -22 2 -31 6 -8 14 -47 17 -87 8 -112 -31 -239 -103 -334 l-27
-35 -24 83 c-13 46 -36 102 -49 126 -20 34 -23 46 -14 58 9 10 10 14 1 14 -7
0 -25 30 -41 66 -23 51 -28 70 -20 85 8 15 7 19 -5 19 -8 0 -40 38 -71 84 -48
72 -54 87 -45 105 12 21 -2 31 -14 11 -7 -11 -65 51 -65 69 0 7 -4 10 -9 7 -5
-4 -23 11 -40 33 -17 21 -54 56 -81 77 -36 27 -50 44 -46 56 2 10 0 16 -4 13
-4 -3 -37 8 -72 25 -34 16 -71 30 -80 30 -10 0 -18 6 -18 14 0 9 -7 12 -21 9
-19 -5 -18 -8 15 -42 39 -40 91 -144 75 -149 -6 -3 -6 -9 -1 -15 5 -7 17 -66
27 -131 16 -104 16 -120 4 -130 -11 -8 -13 -20 -7 -46 9 -41 -7 -134 -29 -168
-8 -13 -12 -30 -9 -38 3 -8 -1 -17 -9 -20 -8 -3 -19 -22 -26 -42 -6 -21 -38
-88 -70 -151 -60 -117 -73 -155 -44 -131 13 10 18 6 32 -26 l16 -39 13 50 c22
84 45 135 60 135 9 0 12 5 9 11 -8 12 41 86 67 100 10 5 18 14 18 20 0 22 41
68 55 62 10 -3 15 1 15 15 0 43 97 102 217 133 117 29 117 29 92 -33 -11 -29
-26 -57 -33 -63 -7 -5 -13 -17 -13 -26 0 -26 -63 -129 -80 -129 -10 0 -13 -6
-9 -16 8 -20 -33 -94 -51 -94 -8 0 -13 -6 -11 -13 2 -7 -12 -36 -30 -64 -19
-29 -42 -76 -53 -104 -19 -48 -19 -51 -2 -44 10 4 26 10 36 12 9 3 17 12 17
20 0 10 6 12 20 8 11 -3 20 -2 20 3 0 18 90 32 211 32 120 0 124 -1 152 -27
17 -16 27 -23 23 -16 -12 22 11 22 62 -2 33 -15 52 -31 53 -42 0 -11 3 -13 6
-5 8 20 122 -45 129 -75 5 -18 9 -21 19 -13 15 13 37 -15 79 -98 45 -90 85
-283 59 -282 -14 1 -93 77 -93 89 0 7 -5 9 -10 6 -19 -12 -50 6 -50 28 0 16
-3 18 -9 9 -6 -11 -20 -7 -64 14 l-57 28 6 40 6 41 -19 -23 c-17 -21 -22 -22
-46 -11 -15 7 -27 19 -27 28 -1 15 -1 15 -10 0 -8 -13 -18 -14 -57 -8 -26 4
-54 8 -60 8 -7 1 -14 9 -14 19 -1 16 -2 16 -6 0 -3 -14 -15 -18 -47 -18 -38 0
-44 3 -59 33 l-16 32 0 -32 c-1 -32 -2 -32 -63 -39 l-63 -7 60 -14 c102 -23
236 -96 320 -175 42 -39 78 -82 82 -97 3 -14 11 -29 16 -33 6 -3 12 -14 13
-24 1 -9 16 -31 32 -48 16 -17 30 -38 30 -46 0 -8 8 -35 18 -60 31 -80 18
-306 -24 -420 -8 -21 -12 -15 -37 60 -31 96 -55 146 -96 207 -16 23 -25 44
-21 47 5 3 -24 40 -64 83 -45 48 -70 82 -66 92 3 9 1 12 -5 8 -6 -4 -13 -4
-15 0 -1 5 -20 21 -40 36 l-38 28 0 -43 c0 -38 -15 -138 -36 -236 -4 -22 -11
-31 -20 -28 -11 4 -13 -3 -8 -34 5 -32 0 -53 -31 -120 -21 -44 -44 -80 -52
-80 -8 0 -12 -4 -8 -9 8 -14 -17 -62 -30 -57 -8 3 -10 -4 -8 -18 5 -26 -80
-145 -115 -161 -12 -5 -22 -17 -22 -25 0 -9 -15 -30 -32 -47 -44 -41 -210
-164 -215 -159 -7 7 39 110 55 123 13 11 13 15 0 35 -14 21 -12 30 17 113 21
57 39 91 49 93 9 2 13 8 10 14 -4 6 1 17 10 24 16 11 14 13 -13 19 -34 7 -34
3 -4 135 8 36 15 74 16 85 0 11 8 25 16 32 14 11 13 12 -5 13 -18 0 -22 8 -28
61 -9 89 -7 147 4 154 6 4 5 11 -4 20 -7 8 -16 41 -20 75 -6 52 -4 65 10 82
18 19 17 19 -10 9 -15 -6 -29 -11 -30 -11 -2 0 -11 20 -20 45 -10 25 -21 45
-25 45 -3 0 -27 -33 -51 -72 -25 -40 -57 -84 -72 -98 -28 -27 -119 -192 -138
-252 -6 -22 -16 -35 -23 -32 -14 5 -71 -146 -108 -281 -12 -44 -26 -83 -32
-86 -13 -9 -54 -220 -63 -324 -4 -44 -13 -84 -20 -90 -7 -5 -21 -69 -32 -141
l-20 -132 102 -323 c57 -178 101 -327 99 -331 -6 -11 -8323 -10 -8323 0 0 5
45 28 101 52 70 30 96 46 84 50 -13 5 -5 12 31 27 27 12 61 24 77 28 15 4 27
11 27 15 0 16 -53 50 -77 50 -14 0 -21 4 -18 10 9 15 42 12 78 -6 l32 -17 -24
27 c-26 28 -22 33 11 15 32 -17 12 9 -26 33 l-31 20 37 -5 38 -6 -16 25 c-9
13 -21 24 -27 24 -6 0 -7 3 -4 6 4 4 18 -1 31 -10 24 -15 25 -15 19 1 -3 10
-10 25 -16 33 -5 8 4 0 22 -18 31 -32 43 -23 22 16 -5 9 -17 68 -26 131 -9 62
-20 121 -25 130 -4 9 -16 68 -25 131 -9 63 -23 126 -30 140 -7 14 -28 72 -45
128 -18 57 -39 106 -46 109 -8 3 -14 10 -14 17 0 17 -69 149 -91 172 -11 12
-35 45 -53 73 l-33 53 -13 -31 c-7 -17 -18 -31 -24 -31 -6 0 -12 -22 -14 -53
-1 -28 -5 -53 -10 -54 -4 -2 -6 -37 -4 -78 2 -50 0 -75 -7 -75 -7 0 -9 -10 -5
-27 20 -90 27 -145 19 -151 -14 -10 -12 -35 2 -47 21 -17 54 -123 40 -128 -9
-3 -9 -9 0 -25 24 -41 43 -93 30 -86 -64 39 -181 143 -161 145 5 0 0 4 -12 9
-24 9 -86 98 -78 111 3 5 1 9 -5 9 -19 0 -84 134 -83 172 0 16 -3 28 -8 28 -7
0 -16 41 -35 163 -6 35 -7 37 -26 23 -20 -14 -137 -151 -129 -151 2 0 -8 -20
-22 -45 -14 -25 -36 -74 -49 -110 l-23 -64 -14 44 c-8 25 -15 90 -16 145 -1
86 2 106 21 140 12 22 31 58 42 81 25 50 112 134 172 165 24 12 69 30 99 40
l55 18 -42 0 c-34 1 -43 5 -43 19 -1 16 -1 16 -11 0 -7 -13 -21 -17 -52 -16
-23 1 -57 -2 -74 -6 -24 -6 -33 -4 -33 5 0 7 -6 4 -14 -7 -12 -16 -18 -17 -34
-7 -17 10 -18 9 -14 -12 3 -18 -3 -27 -28 -40 -17 -9 -38 -14 -46 -11 -8 3
-14 -1 -14 -9 0 -8 -4 -15 -10 -15 -5 0 -12 0 -15 0 -2 0 -20 -16 -40 -35
l-35 -36 0 46 c0 55 28 138 64 191 14 21 26 34 26 29 0 -5 8 0 19 11 10 11 34
27 52 34 19 8 39 19 44 25 17 19 65 36 65 23 0 -6 9 -3 19 6 17 15 36 17 126
14 80 -2 108 -7 115 -18 5 -8 10 -12 10 -7 0 4 11 0 25 -9 14 -9 28 -14 31
-11 4 3 -10 36 -30 72 -19 36 -33 65 -29 65 4 0 -1 6 -12 13 -10 8 -25 28 -34
44 -9 17 -26 49 -39 72 -12 22 -19 41 -15 41 5 0 3 4 -4 8 -7 4 -19 25 -28 46
l-16 39 45 -5 c58 -7 158 -56 172 -85 6 -13 13 -20 17 -17 3 3 14 -7 24 -23
10 -15 23 -32 29 -38 26 -24 58 -81 74 -133 16 -52 18 -54 29 -34 7 13 16 20
22 17 16 -10 11 2 -50 128 -72 148 -85 188 -77 232 4 19 2 35 -3 37 -7 2 -5
39 5 103 18 126 20 129 55 170 18 20 26 36 19 40 -5 3 -10 1 -10 -4 0 -6 -4
-11 -9 -11 -21 0 -111 -46 -111 -57 0 -6 -4 -13 -9 -15 -16 -5 -159 -147 -154
-152 3 -2 -15 -33 -38 -68 -24 -35 -42 -63 -40 -63 2 0 -8 -26 -22 -57 -14
-32 -24 -58 -21 -58 2 0 -7 -22 -20 -48 -13 -26 -28 -65 -31 -86 l-7 -37 -23
21 c-79 74 -93 279 -29 408 16 31 39 62 51 68 13 6 20 14 16 18 -7 6 95 116
108 116 3 0 25 18 48 40 42 40 121 87 121 73 0 -5 4 -1 10 7 7 11 32 14 107
15 54 0 111 -4 128 -8 29 -8 28 -7 -10 22 -22 17 -45 35 -52 41 -7 5 -15 10
-19 10 -11 0 -99 84 -96 93 1 4 -1 6 -5 6 -5 -1 -18 -1 -31 0 -20 1 -21 4 -12
22 11 20 11 20 -14 4 -25 -16 -28 -16 -73 11 -27 15 -51 32 -55 38 -5 8 -11 7
-19 -1 -8 -8 -25 -7 -65 7 -56 19 -168 22 -208 5 -17 -7 -17 -6 -3 22 18 35
83 95 126 117 36 19 151 47 151 37 0 -3 17 -5 38 -3 43 4 118 -20 114 -37 -1
-6 6 -11 16 -11 11 0 27 -9 37 -20 10 -11 25 -20 34 -20 8 0 35 -19 58 -42
l43 -42 0 61 c0 34 5 65 10 68 6 3 10 15 10 26 0 32 41 119 56 119 8 0 14 8
14 18 0 19 101 122 139 142 22 11 159 60 169 60 3 0 -2 -8 -11 -18 -10 -10
-24 -41 -33 -68 -9 -27 -20 -53 -24 -59 -19 -26 -89 -166 -100 -201 -7 -21
-16 -43 -20 -49 -10 -13 -20 -165 -12 -165 4 0 30 22 58 48 28 27 81 61 118
77 l66 30 0 652 0 653 193 2 192 3 3 233 c2 175 5 232 15 232 6 0 128 0 269 1
142 0 259 3 262 7 2 4 11 131 20 282 9 151 18 307 21 345 2 39 7 122 10 185 3
63 8 138 10 165 2 28 7 109 11 180 3 72 8 141 9 155 2 14 4 76 4 138 l1 112
365 0 365 0 0 -220 0 -220 -340 0 -340 0 0 -42 c0 -24 5 -92 10 -153 5 -60 14
-173 20 -250 6 -77 13 -167 15 -200 3 -33 12 -152 21 -265 10 -131 20 -207 27
-212 7 -4 119 -8 250 -8 l237 0 0 -235 0 -235 175 0 175 0 0 -869 0 -869 233
-4 c127 -2 238 -2 245 0 9 3 12 452 12 2198 l0 2194 23 1 c12 1 31 3 42 4 11
1 69 6 130 10 60 4 113 9 117 12 5 2 8 56 8 119 l0 114 33 0 c27 0 188 11 502
35 107 8 190 14 303 21 l102 6 1 -101 c1 -56 2 -107 3 -113 1 -14 58 -14 259
0 92 6 107 5 107 -8 0 -8 0 -1018 0 -2243 0 -1780 3 -2227 13 -2221 6 4 51 36
100 72 l87 64 0 664 0 664 75 0 75 0 0 630 0 630 23 1 c74 3 72 2 73 39 1 19
2 74 3 123 l1 87 190 0 190 0 0 -60 0 -60 95 0 95 0 2 -1055 3 -1054 90 83
c50 46 91 90 91 97 1 8 2 364 3 792 l1 777 110 0 110 0 2 263 3 262 138 3 137
3 0 104 0 105 170 0 170 0 0 409 0 408 25 -5 25 -4 0 -405 0 -404 38 3 37 3 0
728 0 727 28 0 27 0 0 -670z m-7660 -3931 l0 -1361 205 -649 c113 -356 205
-655 205 -664 0 -13 -130 -15 -1207 -15 -692 0 -1203 4 -1197 9 5 5 41 19 79
31 39 12 73 25 77 29 4 3 12 487 18 1076 6 588 12 1070 13 1071 1 1 65 5 141
9 77 3 156 8 175 10 20 2 83 6 141 10 110 6 184 11 313 20 l77 6 0 -900 c0
-496 3 -901 8 -901 5 0 124 73 235 144 16 10 17 87 17 1375 l0 1365 85 335
c47 185 88 342 90 349 3 9 65 12 265 12 l260 0 0 -1361z m4213 -3123 c155 -40
314 -125 401 -215 l39 -40 -121 -128 c-66 -70 -138 -146 -161 -167 l-40 -39
-39 35 c-22 20 -75 53 -118 74 -73 37 -83 39 -169 39 -83 0 -95 -2 -134 -28
-54 -36 -81 -81 -81 -134 0 -83 63 -125 295 -199 403 -127 560 -248 620 -481
20 -75 19 -242 0 -317 -44 -167 -180 -328 -347 -410 -129 -64 -224 -87 -389
-93 -153 -6 -256 5 -387 43 -148 43 -313 138 -424 244 l-58 55 161 168 161
167 60 -55 c113 -105 234 -156 372 -156 67 0 87 4 134 28 77 39 114 87 120
158 8 102 -43 140 -297 221 -267 86 -407 158 -499 258 -152 164 -179 450 -63
651 101 176 308 309 536 345 106 16 318 5 428 -24z m-7828 -5 c153 -51 270
-129 356 -237 168 -211 194 -506 68 -757 -34 -66 -150 -193 -215 -234 -24 -15
-44 -31 -44 -35 0 -4 92 -170 205 -368 113 -198 205 -362 205 -365 0 -3 -130
-5 -289 -5 l-289 0 -173 320 -174 320 -142 0 -143 0 -2 -317 -3 -318 -275 0
-275 0 -3 1013 -2 1013 562 -3 c560 -3 563 -3 633 -27z m2453 -203 l-3 -233
-502 -3 -503 -2 0 -155 0 -155 390 0 390 0 -2 -217 -3 -218 -387 -3 -388 -2 0
-170 0 -170 520 0 520 0 -2 -232 -3 -233 -795 0 -795 0 -3 1013 -2 1012 785 0
785 0 -2 -232z m1896 -771 c208 -551 378 -1006 377 -1012 -1 -6 -106 -10 -293
-10 l-293 0 -74 218 -73 217 -331 -2 -330 -3 -72 -215 -72 -215 -296 -3 c-163
-1 -297 2 -297 6 0 5 167 449 371 988 204 538 376 991 381 1007 l10 27 306 0
307 0 379 -1003z m1166 238 l0 -765 445 0 445 0 0 -250 0 -250 -722 2 -723 3
-3 1013 -2 1012 280 0 280 0 0 -765z m4590 470 l0 -245 -285 0 -285 0 0 -765
0 -765 -275 0 -275 0 0 765 0 765 -280 0 -280 0 0 245 0 245 840 0 840 0 0
-245z m1631 -760 c209 -550 379 -1003 379 -1008 0 -4 -134 -6 -297 -5 l-297 3
-70 213 -71 212 -330 0 -330 0 -71 -212 -70 -213 -298 -3 c-281 -2 -298 -1
-293 15 2 10 170 455 372 988 202 534 371 980 376 993 l9 22 306 -2 307 -3
378 -1000z m1939 760 l0 -245 -280 0 -280 0 0 -765 0 -765 -275 0 -275 0 -2
763 -3 762 -282 3 -283 2 0 245 0 245 840 0 840 0 0 -245z m1850 10 l0 -235
-505 0 -505 0 0 -155 0 -155 390 0 390 0 0 -220 0 -220 -390 0 -390 0 0 -170
0 -170 520 0 520 0 0 -230 0 -230 -795 0 -795 0 0 1010 0 1010 780 0 780 0 0
-235z m-4725 -2454 c-203 -81 -451 -183 -550 -226 -2393 -1028 -4316 -2345
-5824 -3988 -85 -92 -158 -164 -161 -160 -5 6 -1338 4218 -1426 4506 -5 16
198 17 4163 17 l4168 0 -370 -149z"/>
<path d="M15734 13693 c-12 -2 -26 -15 -32 -29 -7 -13 -16 -24 -22 -24 -12 0
-95 -163 -120 -235 -10 -27 -22 -49 -28 -48 -6 1 -26 -45 -46 -103 l-35 -105
29 -11 c17 -5 30 -16 30 -24 0 -8 5 -14 10 -14 6 0 10 4 10 9 0 13 88 -13 168
-49 46 -21 65 -36 73 -57 9 -25 11 -26 20 -10 9 16 14 14 52 -18 23 -20 43
-31 45 -26 2 6 -2 41 -8 78 -7 38 -13 79 -14 93 0 14 -5 28 -11 32 -5 4 -11
43 -12 87 -1 52 -7 88 -17 103 -8 13 -16 38 -18 56 -1 17 -7 32 -14 32 -7 0
-21 48 -34 116 -18 92 -21 121 -11 135 6 11 10 18 9 18 -2 -1 -13 -4 -24 -6z"/>
<path d="M7700 12875 c-18 -19 -37 -32 -42 -29 -4 3 -8 0 -8 -6 0 -7 -12 -26
-26 -43 l-26 -31 24 -9 c12 -6 29 -9 36 -8 8 1 29 -10 48 -24 l34 -26 0 105
c0 59 -1 106 -3 106 -2 0 -18 -16 -37 -35z"/>
<path d="M15360 12790 c0 -27 3 -30 32 -30 19 0 41 -9 55 -22 20 -19 23 -20
23 -4 0 16 7 17 53 12 28 -3 44 -3 35 0 -10 3 -18 12 -18 20 0 8 -4 13 -8 10
-5 -3 -39 6 -76 20 -87 31 -96 31 -96 -6z"/>
<path d="M15660 12722 c0 -4 4 -13 9 -20 7 -11 9 -11 14 1 3 9 -1 18 -9 21 -8
3 -14 2 -14 -2z"/>
<path d="M15760 12690 c8 -5 20 -10 25 -10 6 0 3 5 -5 10 -8 5 -19 10 -25 10
-5 0 -3 -5 5 -10z"/>
<path d="M7577 12588 c-3 -9 -3 -19 1 -22 3 -4 7 -12 8 -19 1 -7 29 -55 63
-106 33 -51 59 -97 56 -102 -3 -4 3 -25 14 -46 l20 -38 1 107 0 106 -47 40
c-27 21 -58 43 -71 47 -13 4 -27 16 -31 27 -6 17 -9 18 -14 6z"/>
<path d="M7450 12429 c-7 -49 -18 -83 -26 -86 -8 -3 -12 -9 -9 -13 3 -5 0 -21
-6 -37 -7 -15 -13 -47 -15 -70 -2 -23 -10 -76 -19 -117 -20 -99 -19 -104 9
-76 15 13 32 20 40 17 10 -4 16 -1 16 7 0 14 106 66 145 70 13 1 33 9 45 17
l21 14 -23 68 c-13 37 -27 65 -31 61 -4 -4 -7 -2 -7 5 0 38 -102 221 -123 221
-2 0 -9 -36 -17 -81z"/>
<path d="M15654 12413 c-8 -12 -39 -24 -95 -36 -105 -22 -106 -21 -115 5 -6
19 -7 19 -16 5 -11 -21 -64 -22 -72 -2 -5 13 -8 13 -25 -2 -11 -10 -26 -23
-34 -30 -9 -7 -17 -41 -22 -87 -5 -53 -11 -76 -20 -76 -18 0 -30 -87 -30 -212
0 -84 -2 -98 -16 -98 -13 0 -18 -15 -24 -75 -4 -42 -4 -99 0 -127 5 -34 3 -53
-4 -57 -8 -5 4 -58 41 -175 50 -159 53 -166 65 -139 7 15 29 64 49 108 20 44
36 87 35 95 -2 19 59 160 127 297 28 56 49 109 46 119 -3 13 29 65 97 157 55
76 98 141 95 144 -3 3 19 33 49 67 47 53 52 61 35 64 -13 2 -20 11 -20 27 0
32 -16 40 -30 15 -8 -15 -21 -20 -55 -20 -39 0 -44 3 -47 25 -3 23 -4 24 -14
8z"/>
<path d="M14974 12272 c-8 -5 -6 -21 5 -55 l16 -48 14 37 c12 33 12 39 -3 49
-8 7 -13 15 -9 18 9 9 -9 8 -23 -1z"/>
<path d="M7638 11911 c-27 -9 -48 -19 -48 -22 0 -10 60 -17 66 -7 3 4 18 8 34
8 23 0 27 3 23 20 -6 23 -12 23 -75 1z"/>
<path d="M7420 11640 c0 -11 -5 -20 -11 -20 -6 0 6 -20 27 -45 20 -25 34 -45
31 -45 -4 0 25 -43 63 -96 39 -53 68 -100 65 -104 -3 -4 20 -60 51 -125 31
-64 57 -126 58 -138 1 -12 10 -35 19 -52 15 -28 16 -12 16 290 1 294 -4 367
-23 336 -10 -15 -46 -14 -46 1 0 6 -6 4 -13 -6 -11 -15 -19 -16 -62 -6 -28 6
-57 15 -67 20 -11 6 -18 5 -22 -5 -7 -20 -55 -19 -62 0 -9 22 -24 18 -24 -5z"/>
<path d="M2180 9014 l0 -195 228 3 229 3 41 27 c123 82 111 279 -22 339 -36
16 -68 19 -258 19 l-218 0 0 -196z"/>
<path d="M6387 8852 c-48 -152 -87 -280 -87 -284 0 -5 81 -8 181 -8 141 0 180
3 176 13 -2 6 -41 129 -87 272 -45 143 -85 265 -89 272 -3 7 -46 -112 -94
-265z"/>
<path d="M13846 9028 c-9 -29 -49 -158 -90 -285 l-74 -233 184 0 183 0 -9 28
c-5 15 -46 141 -90 281 -44 140 -82 256 -84 259 -2 2 -11 -20 -20 -50z"/>
</g>
</svg>
